Exact Audio Copy V0.99 prebeta 5 from 4. May 2009

EAC extraction logfile from 13. October 2010, 8:19

Sub.Bionic / You I lov///

Used drive  : HL-DT-STDVD-ROM GDR8162B   Adapter: 0  ID: 0

Read mode               : Secure
Utilize accurate stream : Yes
Defeat audio cache      : Yes
Make use of C2 pointers : No

Read offset correction                      : 102
Overread into Lead-In and Lead-Out          : No
Fill up missing offset samples with silence : Yes
Delete leading and trailing silent blocks   : No
Null samples used in CRC calculations       : Yes
Used interface                              : Native Win32 interface for Win NT & 2000
Gap handling                                : Appended to previous track

Used output format              : User Defined Encoder
Selected bitrate                : 192 kBit/s
Quality                         : High
Add ID3 tag                     : No
Command line compressor         : D:\system\Exact Audio Copy\Flac\flac.exe
Additional command line options : -V -8 -T "artist=%a" -T "title=%t" -T "album=%g" -T "date=%y" -T "tracknumber=%n" -T "genre=%m" %s


TOC of the extracted CD

     Track |   Start  |  Length  | Start sector | End sector 
    ---------------------------------------------------------
        1  |  0:00.00 |  4:16.32 |         0    |    19231   
        2  |  4:16.32 |  5:30.25 |     19232    |    44006   
        3  |  9:46.57 |  3:37.25 |     44007    |    60306   
        4  | 13:24.07 |  3:22.55 |     60307    |    75511   
        5  | 16:46.62 |  4:51.53 |     75512    |    97389   
        6  | 21:38.40 |  5:15.50 |     97390    |   121064   
        7  | 26:54.15 |  3:37.65 |    121065    |   137404   
        8  | 30:32.05 |  5:03.62 |    137405    |   160191   
        9  | 35:35.67 |  4:26.35 |    160192    |   180176   
       10  | 40:02.27 |  5:34.23 |    180177    |   205249   
       11  | 45:36.50 |  3:34.70 |    205250    |   221369   
       12  | 49:11.45 |  5:23.22 |    221370    |   245616   
       13  | 54:34.67 |  2:58.08 |    245617    |   258974   
       14  | 60:05.00 |  0:06.02 |    270375    |   270826   


Track  1

     Filename D:\wave dumps\wrote uploader\Sub.bionic - You I Lov... (2001) - FLAC\01 - Sub.Bionic - Last Song On Earth.wav

     Pre-gap length  0:00:02.00

     Peak level 97.7 %
     Track quality 100.0 %
     Test CRC 9C5B6A89
     Copy CRC 9C5B6A89
     Accurately ripped (confidence 2)  [A42B8C72]
     Copy OK

Track  2

     Filename D:\wave dumps\wrote uploader\Sub.bionic - You I Lov... (2001) - FLAC\02 - Sub.Bionic - Plum.wav

     Pre-gap length  0:00:01.20

     Peak level 95.5 %
     Track quality 100.0 %
     Test CRC 81F9072E
     Copy CRC 81F9072E
     Accurately ripped (confidence 1)  [BA973B40]
     Copy OK

Track  3

     Filename D:\wave dumps\wrote uploader\Sub.bionic - You I Lov... (2001) - FLAC\03 - Sub.Bionic - Sub.Bionic Radio.wav

     Peak level 97.7 %
     Track quality 100.0 %
     Test CRC D58F21CF
     Copy CRC D58F21CF
     Accurately ripped (confidence 1)  [DB2C4756]
     Copy OK

Track  4

     Filename D:\wave dumps\wrote uploader\Sub.bionic - You I Lov... (2001) - FLAC\04 - Sub.Bionic - Quasi-Dead.wav

     Peak level 98.8 %
     Track quality 100.0 %
     Test CRC 1CB90D3F
     Copy CRC 1CB90D3F
     Accurately ripped (confidence 1)  [4CF4A566]
     Copy OK

Track  5

     Filename D:\wave dumps\wrote uploader\Sub.bionic - You I Lov... (2001) - FLAC\05 - Sub.Bionic - Love Trans Holistic Bottle.wav

     Pre-gap length  0:00:01.22

     Peak level 97.7 %
     Track quality 100.0 %
     Test CRC BDDD2F94
     Copy CRC BDDD2F94
     Accurately ripped (confidence 1)  [A411E38F]
     Copy OK

Track  6

     Filename D:\wave dumps\wrote uploader\Sub.bionic - You I Lov... (2001) - FLAC\06 - Sub.Bionic - Hush.wav

     Pre-gap length  0:00:01.00

     Peak level 97.7 %
     Track quality 100.0 %
     Test CRC D85DCDA6
     Copy CRC D85DCDA6
     Accurately ripped (confidence 1)  [70FA434A]
     Copy OK

Track  7

     Filename D:\wave dumps\wrote uploader\Sub.bionic - You I Lov... (2001) - FLAC\07 - Sub.Bionic - God In Neutral.wav

     Peak level 97.7 %
     Track quality 100.0 %
     Test CRC 8CB2FA93
     Copy CRC 8CB2FA93
     Accurately ripped (confidence 1)  [63062FF5]
     Copy OK

Track  8

     Filename D:\wave dumps\wrote uploader\Sub.bionic - You I Lov... (2001) - FLAC\08 - Sub.Bionic - Reply (Without Recourse).wav

     Pre-gap length  0:00:01.77

     Peak level 95.5 %
     Track quality 99.9 %
     Test CRC ABCE97A4
     Copy CRC ABCE97A4
     Accurately ripped (confidence 1)  [ACC1DBCD]
     Copy OK

Track  9

     Filename D:\wave dumps\wrote uploader\Sub.bionic - You I Lov... (2001) - FLAC\09 - Sub.Bionic - From- Achtung Moon.wav

     Pre-gap length  0:00:01.26

     Peak level 97.7 %
     Track quality 100.0 %
     Test CRC 92D5FC3C
     Copy CRC 92D5FC3C
     Accurately ripped (confidence 1)  [360C03A8]
     Copy OK

Track 10

     Filename D:\wave dumps\wrote uploader\Sub.bionic - You I Lov... (2001) - FLAC\10 - Sub.Bionic - Phonophobic.wav

     Peak level 97.7 %
     Track quality 100.0 %
     Test CRC 73763708
     Copy CRC 73763708
     Accurately ripped (confidence 1)  [DE58A299]
     Copy OK

Track 11

     Filename D:\wave dumps\wrote uploader\Sub.bionic - You I Lov... (2001) - FLAC\11 - Sub.Bionic - Heart Attack.wav

     Pre-gap length  0:00:01.04

     Peak level 95.5 %
     Track quality 100.0 %
     Test CRC 1A0148E2
     Copy CRC 1A0148E2
     Accurately ripped (confidence 1)  [BA11A0D4]
     Copy OK

Track 12

     Filename D:\wave dumps\wrote uploader\Sub.bionic - You I Lov... (2001) - FLAC\12 - Sub.Bionic - Blumonster.wav

     Pre-gap length  0:00:01.14

     Peak level 97.7 %
     Track quality 100.0 %
     Test CRC 460206FB
     Copy CRC 460206FB
     Accurately ripped (confidence 1)  [F7ADC727]
     Copy OK

Track 13

     Filename D:\wave dumps\wrote uploader\Sub.bionic - You I Lov... (2001) - FLAC\13 - Sub.Bionic - Nuclear Bomb Parade.wav

     Pre-gap length  0:00:01.02

     Peak level 89.1 %
     Track quality 100.0 %
     Test CRC 2FFCAB80
     Copy CRC 2FFCAB80
     Accurately ripped (confidence 1)  [99F7D35E]
     Copy OK


All tracks accurately ripped

No errors occurred

End of status report
